<svg width="38" height="17" viewBox="0 0 38 17" fill="none" xmlns="http://www.w3.org/2000/svg">
<path d="M7.18231 2.46374C7.62968 1.9083 7.93326 1.1625 7.85319 0.400391C7.1983 0.432715 6.39914 0.82926 5.93646 1.38514C5.52103 1.86116 5.15333 2.63818 5.24919 3.36835C5.98434 3.43164 6.7188 3.0036 7.18231 2.46374Z" fill="black"/>
<path d="M7.84412 3.51009C6.77651 3.44696 5.86878 4.11154 5.35894 4.11154C4.84883 4.11154 4.0681 3.5419 3.22368 3.55725C2.12461 3.57328 1.10481 4.19012 0.547076 5.17119C-0.600079 7.13381 0.244342 10.0451 1.35989 11.6435C1.90162 12.4343 2.55451 13.305 3.41478 13.2738C4.22759 13.2421 4.54618 12.7513 5.53419 12.7513C6.52148 12.7513 6.80846 13.2738 7.66887 13.2579C8.56114 13.2421 9.11897 12.4667 9.6607 11.6752C10.2822 10.7737 10.5366 9.90326 10.5526 9.85547C10.5366 9.83965 8.83203 9.19056 8.81623 7.24425C8.80013 5.61457 10.1545 4.83941 10.2182 4.79133C9.45341 3.6685 8.2584 3.5419 7.84412 3.51009Z" fill="black"/>
<path d="M17.1392 1.30664C19.4596 1.30664 21.0754 2.89435 21.0754 5.20594C21.0754 7.52578 19.4264 9.12173 17.081 9.12173H14.5119V13.1773H12.6556V1.30664H17.1392V1.30664ZM14.5118 7.57512H16.6417C18.2578 7.57512 19.1776 6.71145 19.1776 5.21419C19.1776 3.71708 18.2578 2.8615 16.65 2.8615H14.5118V7.57512Z" fill="black"/>
<path d="M21.5623 10.718C21.5623 9.20426 22.7309 8.27473 24.8029 8.15954L27.1895 8.01974V7.35346C27.1895 6.39094 26.5347 5.8151 25.441 5.8151C24.4048 5.8151 23.7584 6.30859 23.6011 7.08197H21.9105C22.0099 5.51885 23.3524 4.36719 25.5072 4.36719C27.6204 4.36719 28.9712 5.47776 28.9712 7.21351V13.1777H27.2557V11.7545H27.2144C26.709 12.717 25.6066 13.3257 24.463 13.3257C22.7558 13.3257 21.5623 12.2727 21.5623 10.718ZM27.1895 9.93654V9.25377L25.043 9.38531C23.9739 9.45941 23.369 9.92829 23.369 10.6687C23.369 11.4254 23.9988 11.919 24.9602 11.919C26.2115 11.919 27.1895 11.0635 27.1895 9.93654Z" fill="black"/>
<path d="M30.5911 16.3593V14.9197C30.7235 14.9525 31.0218 14.9525 31.1711 14.9525C31.9998 14.9525 32.4473 14.6071 32.7207 13.7186C32.7207 13.7021 32.8783 13.1922 32.8783 13.1839L29.7292 4.52148H31.6682L33.8729 11.5634H33.9058L36.1105 4.52148H38L34.7345 13.628C33.989 15.7259 33.127 16.4004 31.3204 16.4004C31.1711 16.4004 30.7235 16.3839 30.5911 16.3593Z" fill="black"/>
</svg>
