<svg width="106" height="42" viewBox="0 0 106 42" fill="none" xmlns="http://www.w3.org/2000/svg">
<g clip-path="url(#clip0_14009_14715)">
<path fill-rule="evenodd" clip-rule="evenodd" d="M12 9C18.6 9 24 14.4 24 21C24 27.6 18.6 33 12 33C5.4 33 0 27.6 0 21C0 14.4 5.4 9 12 9ZM12 13.5C11.55 13.5 11.25 13.8 11.25 14.25V19.2L7.8 15.75C7.5 15.45 7.05 15.45 6.75 15.75C6.45 16.05 6.45 16.5 6.75 16.8L10.2 20.25H5.25C4.8 20.25 4.5 20.55 4.5 21C4.5 21.45 4.8 21.75 5.25 21.75H10.2L6.75 25.2C6.45 25.5 6.45 25.95 6.75 26.25C7.05 26.55 7.5 26.55 7.8 26.25L11.25 22.8V27.75C11.25 28.2 11.55 28.5 12 28.5C12.45 28.5 12.75 28.2 12.75 27.75V22.8L16.2 26.25C16.5 26.55 16.95 26.55 17.25 26.25C17.55 25.95 17.55 25.5 17.25 25.2L13.8 21.75H18.75C19.2 21.75 19.5 21.45 19.5 21C19.5 20.55 19.2 20.25 18.75 20.25H13.8L17.25 16.8C17.55 16.5 17.55 16.05 17.25 15.75C16.95 15.45 16.5 15.45 16.2 15.75L12.75 19.2V14.25C12.75 13.8 12.45 13.5 12 13.5Z" fill="black"/>
</g>
<path d="M49.3906 13.7969V32H46.5L37.0625 18.3125V32H34.1719V13.7969H37.0625L46.5 27.4844V13.7969H49.3906ZM68.9844 22.3906V23.4219C68.9844 24.7969 68.7969 26.0312 68.4219 27.125C68.0469 28.2083 67.5104 29.1354 66.8125 29.9062C66.1146 30.6667 65.276 31.25 64.2969 31.6562C63.3281 32.0521 62.2448 32.25 61.0469 32.25C59.8698 32.25 58.7917 32.0521 57.8125 31.6562C56.8438 31.25 56 30.6667 55.2812 29.9062C54.5729 29.1354 54.026 28.2083 53.6406 27.125C53.2552 26.0312 53.0625 24.7969 53.0625 23.4219V22.3906C53.0625 21.0156 53.2552 19.7865 53.6406 18.7031C54.026 17.6094 54.5677 16.6771 55.2656 15.9062C55.974 15.1354 56.8125 14.5521 57.7812 14.1562C58.7604 13.75 59.8385 13.5469 61.0156 13.5469C62.224 13.5469 63.3125 13.75 64.2812 14.1562C65.2604 14.5521 66.099 15.1354 66.7969 15.9062C67.5052 16.6771 68.0469 17.6094 68.4219 18.7031C68.7969 19.7865 68.9844 21.0156 68.9844 22.3906ZM66.125 23.4219V22.3594C66.125 21.3281 66.0104 20.4167 65.7812 19.625C65.5521 18.8333 65.2188 18.1667 64.7812 17.625C64.3438 17.0833 63.8073 16.6719 63.1719 16.3906C62.5365 16.1094 61.8177 15.9688 61.0156 15.9688C60.2448 15.9688 59.5469 16.1094 58.9219 16.3906C58.2969 16.6719 57.7604 17.0833 57.3125 17.625C56.875 18.1667 56.5365 18.8333 56.2969 19.625C56.0573 20.4167 55.9375 21.3281 55.9375 22.3594V23.4219C55.9375 24.4531 56.0573 25.3698 56.2969 26.1719C56.5365 26.9635 56.8802 27.6354 57.3281 28.1875C57.776 28.7292 58.3125 29.1406 58.9375 29.4219C59.5729 29.7031 60.276 29.8438 61.0469 29.8438C61.8594 29.8438 62.5781 29.7031 63.2031 29.4219C63.8281 29.1406 64.3594 28.7292 64.7969 28.1875C65.2344 27.6354 65.5625 26.9635 65.7812 26.1719C66.0104 25.3698 66.125 24.4531 66.125 23.4219ZM79.4688 27.4531L84.4688 13.7969H87.5625L80.4219 32H78.2031L79.4688 27.4531ZM73.6875 13.7969L78.6562 27.4375L79.9219 32H77.7031L70.5625 13.7969H73.6875ZM97.3438 16.3438L91.1406 32H88.1875L95.6719 13.7969H97.5625L97.3438 16.3438ZM102.703 32L96.5469 16.2812L96.3438 13.7969H98.25L105.641 32H102.703ZM102.281 25.2656V27.6406H91.4688V25.2656H102.281Z" fill="black"/>
<defs>
<clipPath id="clip0_14009_14715">
<rect width="24" height="24" fill="white" transform="translate(0 9)"/>
</clipPath>
</defs>
</svg>
