<svg width="54" height="19" viewBox="0 0 54 19" fill="none" xmlns="http://www.w3.org/2000/svg">
<mask id="mask0_14138_29162" style="mask-type:luminance" maskUnits="userSpaceOnUse" x="0" y="0" width="54" height="19">
<path d="M48.9176 0.400391H5.08235C2.27545 0.400391 0 2.70293 0 5.54325V13.2575C0 16.0979 2.27545 18.4004 5.08235 18.4004H48.9176C51.7246 18.4004 54 16.0979 54 13.2575V5.54325C54 2.70293 51.7246 0.400391 48.9176 0.400391Z" fill="white"/>
</mask>
<g mask="url(#mask0_14138_29162)">
<mask id="mask1_14138_29162" style="mask-type:luminance" maskUnits="userSpaceOnUse" x="0" y="0" width="54" height="19">
<path d="M54 0.400391H0V18.4004H54V0.400391Z" fill="white"/>
</mask>
<g mask="url(#mask1_14138_29162)">
<path d="M54.0018 0.400391H0.00183105V18.4004H54.0018V0.400391Z" fill="white"/>
<path d="M54.0029 0.394531H0.00183105V18.4069H54.0029V0.394531Z" fill="url(#paint0_linear_14138_29162)"/>
<path d="M15.6057 21.9499C0.355886 15.9271 1.00795 20.2898 -6.63779 20.3494L-2.09275 -3.86852C2.99051 -6.38732 4.01571 -4.03021 18.9301 -0.00438499L44.0966 21.3142C38.0153 22.2776 30.8554 27.9728 15.6057 21.9499Z" fill="url(#paint1_linear_14138_29162)" fill-opacity="0.6"/>
<path d="M36.6556 -0.609375L-1.84531 -0.207708L-0.972279 12.7031L10.283 13.0486C17.1025 12.1509 24.0208 13.7704 27.9742 17.3334L34.8625 23.5416C35.9154 24.4919 37.3267 25.2694 38.9743 25.8067C40.6218 26.344 42.4562 26.6251 44.3189 26.6257H78.8486V16.8553C78.8486 14.9662 75.8983 13.6184 72.9912 14.1794L56.1843 18.0636C54.5503 18.2826 52.8462 18.1754 51.3171 17.7574C49.7879 17.3394 48.5125 16.6322 47.6743 15.7375L36.6556 -0.609375Z" fill="url(#paint2_linear_14138_29162)"/>
<path d="M22.8113 16.5486C28.276 16.5486 32.706 13.3443 32.706 9.3915C32.706 5.43873 28.276 2.23438 22.8113 2.23438C17.3467 2.23438 12.9167 5.43873 12.9167 9.3915C12.9167 13.3443 17.3467 16.5486 22.8113 16.5486Z" fill="url(#paint3_radial_14138_29162)"/>
<path d="M33.4125 24.0683C43.6607 24.0683 51.9685 20.0044 51.9685 14.9912C51.9685 9.97804 43.6607 5.91406 33.4125 5.91406C23.1643 5.91406 14.8565 9.97804 14.8565 14.9912C14.8565 20.0044 23.1643 24.0683 33.4125 24.0683Z" fill="url(#paint4_radial_14138_29162)" fill-opacity="0.7"/>
<path d="M32.3969 21.5045C38.8762 22.7355 45.2411 21.4935 46.6133 18.7304C47.9855 15.9673 43.8454 12.7295 37.3662 11.4985C30.8869 10.2675 24.522 11.5094 23.1498 14.2725C21.7776 17.0356 25.9176 20.2734 32.3969 21.5045Z" fill="url(#paint5_radial_14138_29162)" fill-opacity="0.7"/>
<path d="M28.0745 -0.00849128L-0.129425 0.285749L0.510113 9.74355L8.75519 9.99671C13.7508 9.33907 18.8189 10.5255 21.7149 13.1355L26.761 17.6834C27.5323 18.3795 28.5661 18.949 29.7731 19.3426C30.98 19.7363 32.3238 19.9422 33.6883 19.9427H58.9831L61.6459 7.79255C61.6459 6.40872 59.4845 5.42132 57.3552 5.83232L56.1187 -1.65143C54.9218 -1.49103 53.6735 -1.56958 52.5533 -1.87578C51.433 -2.18198 50.4988 -2.70005 49.8847 -3.35547L28.0745 -0.00849128Z" fill="url(#paint6_linear_14138_29162)"/>
</g>
<path fill-rule="evenodd" clip-rule="evenodd" d="M9.80032 12.0054C9.64753 12.0029 9.495 11.9907 9.34367 11.9687C8.88708 11.8934 8.59574 11.6674 8.47154 11.2952C8.41576 11.1397 8.38495 10.9763 8.38018 10.811V8.03258L8.64961 8.02063C9.22588 7.99215 9.83685 7.94991 10.4168 7.78817L10.0469 6.51932L8.38018 6.76831V4.90039H6.41204V6.76831H5.08231V8.04911H6.41204C6.41204 8.04911 6.41204 10.6907 6.42303 11.3651C6.42411 11.777 6.54234 12.1799 6.76367 12.5264C7.02853 12.9316 7.41301 13.1852 7.97556 13.3248C8.5796 13.4742 9.19177 13.4673 9.83843 13.46L9.84326 13.4599H9.99853V12.0128H9.92363L9.80032 12.0054ZM13.7695 6.67552C14.723 6.47247 15.4801 6.6158 16.2628 6.91163C17.1952 7.2645 17.7359 8.03625 17.735 9.03499V13.4452H15.9404V12.1837L15.5102 12.5191C15.483 12.5406 15.4122 12.6019 15.3624 12.6451C15.3355 12.6684 15.3147 12.6864 15.3102 12.69C14.7008 13.2067 13.9232 13.4789 13.1265 13.4544C12.8006 13.4602 12.4781 13.3853 12.1878 13.2361C11.8974 13.0869 11.6481 12.8681 11.4616 12.599C11.2497 12.3041 11.1493 11.9412 11.1438 11.457C11.1292 10.1844 11.963 9.78566 12.6644 9.67451C12.8928 9.63831 13.1237 9.62018 13.3549 9.62025C14.0424 9.63092 14.7227 9.76406 15.3641 10.0135L15.4042 10.0292L15.4536 10.0485C15.5154 10.0717 15.5835 10.0717 15.6454 10.0485L15.9577 9.98134C15.9577 9.98134 15.9322 9.15353 15.8938 8.95322C15.7997 8.46992 15.2289 8.14007 14.6334 8.15203C14.1202 8.16212 13.6416 8.60498 13.3676 8.99822C13.0215 8.73728 12.7631 8.51312 12.5137 8.29538C12.3621 8.16212 12.2069 8.02802 12.0343 7.88653C12.4269 7.1349 13.0251 6.83353 13.7695 6.67552ZM13.9795 12.1378C14.6992 12.1378 15.3248 11.7473 15.7084 11.0563L15.9276 10.6594H12.6279L12.617 10.9158C12.595 11.502 12.9009 11.9375 13.4389 12.0799C13.5862 12.1152 13.7368 12.1347 13.8882 12.1378H13.9795ZM32.5165 6.67552C33.469 6.47247 34.2262 6.6158 35.0089 6.91163C35.9413 7.2645 36.482 8.03625 36.482 9.03499V13.4452H34.6874V12.1837L34.2572 12.5191C34.2252 12.5449 34.1292 12.6282 34.0829 12.6685L34.0581 12.69C33.4484 13.2068 32.6705 13.479 31.8735 13.4544C31.5476 13.4602 31.2252 13.3853 30.9348 13.2361C30.6444 13.0869 30.395 12.8681 30.2086 12.599C29.9977 12.3041 29.8963 11.9412 29.8908 11.457C29.8762 10.1844 30.71 9.78566 31.4114 9.67451C31.6398 9.63831 31.8706 9.62018 32.1019 9.62025C32.7894 9.63092 33.4697 9.76406 34.1111 10.0135L34.1522 10.0292C34.1686 10.0365 34.186 10.0429 34.2015 10.0485C34.2633 10.0717 34.3314 10.0717 34.3933 10.0485L34.7047 9.98134C34.7047 9.98134 34.6791 9.15353 34.6408 8.95322C34.5467 8.46992 33.9768 8.14007 33.3805 8.15203C32.8681 8.16212 32.3886 8.60498 32.1146 8.99822C31.7692 8.7378 31.5119 8.51396 31.2621 8.29661L31.2607 8.29538C31.1091 8.16212 30.9538 8.02802 30.7812 7.88653C31.1731 7.1349 31.7713 6.83353 32.5165 6.67552ZM32.7266 12.1378C33.4453 12.1378 34.0718 11.7473 34.4545 11.0563L34.6746 10.6594H31.3758L31.3648 10.9158C31.342 11.502 31.648 11.9375 32.1868 12.0799C32.3338 12.1152 32.4841 12.1347 32.6352 12.1378H32.7266ZM47.2697 6.91163C46.487 6.6158 45.7299 6.47247 44.7764 6.67552C44.0321 6.83353 43.4339 7.1349 43.0412 7.88653C43.2138 8.02802 43.3691 8.16212 43.5206 8.29538C43.77 8.51312 44.0284 8.73728 44.3745 8.99822C44.6485 8.60498 45.1271 8.16212 45.6404 8.15203C46.2368 8.14007 46.8066 8.46992 46.9007 8.95322C46.9391 9.15353 46.9646 9.98134 46.9646 9.98134L46.6523 10.0485C46.5907 10.0715 46.523 10.0715 46.4614 10.0485C46.4459 10.0429 46.4286 10.0365 46.4121 10.0292L46.371 10.0135C45.7296 9.76406 45.0494 9.63092 44.3618 9.62025C44.1306 9.62018 43.8997 9.63831 43.6713 9.67451C42.97 9.78566 42.1361 10.1844 42.1507 11.457C42.1562 11.9412 42.2567 12.3041 42.4685 12.599C42.655 12.8681 42.9043 13.0869 43.1947 13.2361C43.4851 13.3853 43.8075 13.4602 44.1334 13.4544C44.9304 13.479 45.7083 13.2068 46.318 12.69L46.343 12.6684L46.3435 12.6679C46.3901 12.6274 46.4853 12.5447 46.5171 12.5191L46.9473 12.1837V13.4452H48.7419V9.03499C48.7428 8.03625 48.2021 7.2645 47.2697 6.91163ZM46.7154 11.0563C46.3318 11.7473 45.7061 12.1378 44.9865 12.1378H44.8952C44.7437 12.1347 44.5931 12.1152 44.4458 12.0799C43.9079 11.9375 43.602 11.502 43.6239 10.9158L43.6348 10.6594H46.9327L46.7154 11.0563ZM40.1296 7.93243C40.4036 7.42984 40.8173 7.17443 41.3982 7.14776C41.5297 7.14133 41.6631 7.14229 41.8082 7.14409V8.86316L41.7798 8.86348C41.6397 8.86483 41.1098 8.86984 40.8877 8.90179C40.5171 8.94686 40.1739 9.12056 39.9169 9.39293C39.66 9.66531 39.5056 10.0193 39.4803 10.3939C39.4711 10.5372 39.4742 10.6804 39.4773 10.8216C39.4788 10.8912 39.4803 10.9604 39.4803 11.0288V11.14V12.8939V13.459H37.7405V7.23692H39.4757V8.0565V8.26967L39.9059 8.36976C39.9059 8.36976 40.0995 7.98758 40.1296 7.93243ZM25.8614 8.77592C25.2906 8.82921 24.8704 9.32537 24.8704 9.95383V13.4544H23.0512V10.0172C23.0667 9.73056 22.9888 9.44668 22.8292 9.20863C22.5598 8.84021 22.0457 8.68033 21.5507 8.80896C21.3392 8.86161 21.1492 8.979 21.0069 9.14486C20.8646 9.31078 20.7769 9.51701 20.7561 9.73513C20.7414 9.85058 20.7341 9.96694 20.7342 10.0834V13.459H18.9259V7.23602H20.7415V8.63346L21.0027 8.17408C21.5853 7.14596 22.7178 6.96865 23.4685 7.17996C24.1663 7.38118 24.6037 7.93886 24.7572 8.70881L25.0239 8.17228C25.6084 7.14409 26.8669 6.98608 27.6176 7.19738C28.3108 7.39583 28.7218 7.86628 28.8661 8.63809C28.9008 8.8377 28.9173 9.04007 28.9154 9.24263V12.4869V13.4508H27.1801V12.8315V10.0438C27.1834 9.92914 27.1757 9.81439 27.1573 9.70112C27.034 9.05704 26.55 8.71067 25.8614 8.77592Z" fill="black"/>
</g>
<defs>
<linearGradient id="paint0_linear_14138_29162" x1="0.516065" y1="16.4189" x2="43.2882" y2="-13.2208" gradientUnits="userSpaceOnUse">
<stop offset="0.01" stop-color="#AAE1FF"/>
<stop offset="0.427083" stop-color="#F9BD9A"/>
<stop offset="0.51" stop-color="#FFBC8C"/>
<stop offset="0.640625" stop-color="#FFBE92"/>
<stop offset="0.75" stop-color="#F8BC8B"/>
<stop offset="0.88" stop-color="#F29F7E"/>
<stop offset="1" stop-color="#F0826B"/>
</linearGradient>
<linearGradient id="paint1_linear_14138_29162" x1="28.292" y1="7.83113" x2="4.55325" y2="38.7322" gradientUnits="userSpaceOnUse">
<stop stop-color="white" stop-opacity="0"/>
<stop offset="0.463182" stop-color="#CAEDFF"/>
<stop offset="1" stop-color="#98D6F7" stop-opacity="0"/>
</linearGradient>
<linearGradient id="paint2_linear_14138_29162" x1="11.6635" y1="0.811431" x2="20.5449" y2="28.7642" gradientUnits="userSpaceOnUse">
<stop offset="0.01" stop-color="#FFE08B"/>
<stop offset="0.130208" stop-color="#FFE294" stop-opacity="0.590397"/>
<stop offset="0.303475" stop-color="#FFD972" stop-opacity="0"/>
</linearGradient>
<radialGradient id="paint3_radial_14138_29162" cx="0" cy="0" r="1" gradientUnits="userSpaceOnUse" gradientTransform="translate(22.8113 9.3915) rotate(90) scale(7.15712 9.89464)">
<stop stop-color="#F8B483" stop-opacity="0.57"/>
<stop offset="1" stop-color="#F8B483" stop-opacity="0"/>
</radialGradient>
<radialGradient id="paint4_radial_14138_29162" cx="0" cy="0" r="1" gradientUnits="userSpaceOnUse" gradientTransform="translate(33.4125 14.9912) rotate(90) scale(9.07714 18.556)">
<stop stop-color="#EB84A4"/>
<stop offset="0.755208" stop-color="#EB84A4" stop-opacity="0"/>
</radialGradient>
<radialGradient id="paint5_radial_14138_29162" cx="0" cy="0" r="1" gradientTransform="matrix(-2.48464 5.00299 -11.7317 -2.22893 44.1286 23.7334)" gradientUnits="userSpaceOnUse">
<stop stop-color="#EB84A4"/>
<stop offset="0.755208" stop-color="#EB84A4" stop-opacity="0"/>
</radialGradient>
<linearGradient id="paint6_linear_14138_29162" x1="23.9512" y1="9.61498" x2="42.57" y2="27.8368" gradientUnits="userSpaceOnUse">
<stop offset="0.326812" stop-color="#EB84A4" stop-opacity="0"/>
<stop offset="1" stop-color="#9881BB"/>
</linearGradient>
</defs>
</svg>
